{"title":"Cee Lo Green-Kung Fu Fighting(Kungfu Panda Music Video).AVI","uid":6418926,"size":64474932,"categoryP":"video","categoryS":"music_videos","magnet":"?xt=urn:btih:d8176bce1b3642d469baad1d146d5c62da786dea&amp;dn=Cee+Lo+Green-Kung+Fu+Fighting%28Kungfu+Panda+Music+Video%29.AVI&amp;tr=udp%3A%2F%2Ftracker.openbittorrent.com%3A80&amp;tr=udp%3A%2F%2Fopen.demonii.com%3A1337&amp;tr=udp%3A%2F%2Ftracker.coppersurfer.tk%3A6969&amp;tr=udp%3A%2F%2Fexodus.desync.com%3A6969","seeders":1,"leechers":0,"uploader":"wushan","files":1,"time":1306250029,"description":"Cee Lo Green-Kung Fu Fighting(Kungfu Panda Music Video).\n\n      Format : AVI\n      Format/Info : Audio Video Interleave\n      File size : 61.5 MiB\n      Duration : 2mn 2s\n      Overall bit rate : 4 209 Kbps\n   Video #0\n      ID : 0\n      Format : MPEG-4 Visual\n      Format profile : Simple@L3\n      Format settings, BVOP : No\n      Format settings, QPel : No\n      Format settings, GMC : No warppoints\n      Format settings, Matrix : Default (H.263)\n      Codec ID : XVID\n      Codec ID/Hint : XviD\n      Duration : 2mn 2s\n      Bit rate : 4 007 Kbps\n      Width : 1 280 pixels\n      Height : 720 pixels\n      Display aspect ratio : 16:9\n      Frame rate : 30.000 fps\n      Resolution : 24 bits\n      Colorimetry : 4:2:0\n      Scan type : Progressive\n      Bits/(Pixel*Frame) : 0.145\n      Stream size : 58.5 MiB (95%)\n      Writing library : ZJMedia MPEG Encoder\n   Audio #1\n      ID : 1\n      Format : AC-3\n      Format/Info : Audio Coding 3\n      Codec ID : 2000\n      Duration : 2mn 2s\n      Bit rate mode : Constant\n      Bit rate : 192 Kbps\n      Channel(s) : 2 channels\n      Channel positions : L R\n      Sampling rate : 48.0 KHz\n      Stream size : 2.81 MiB (5%)\n      Alignment : Split accross interleaves\n      Interleave, duration : 995 ms (29.85 video frames)","torrent":{"xt":"urn:btih:d8176bce1b3642d469baad1d146d5c62da786dea","amp;dn":"Cee+Lo+Green-Kung+Fu+Fighting%28Kungfu+Panda+Music+Video%29.AVI","amp;tr":["udp%3A%2F%2Ftracker.openbittorrent.com%3A80","udp%3A%2F%2Fopen.demonii.com%3A1337","udp%3A%2F%2Ftracker.coppersurfer.tk%3A6969","udp%3A%2F%2Fexodus.desync.com%3A6969"],"infoHash":"d8176bce1b3642d469baad1d146d5c62da786dea","infoHashBuffer":{"type":"Buffer","data":[216,23,107,206,27,54,66,212,105,186,173,29,20,109,92,98,218,120,109,234]},"announce":[],"urlList":[]}}